<svg width="70" height="70" viewBox="0 0 70 70" fill="none" xmlns="http://www.w3.org/2000/svg">
<g clip-path="url(#clip0_12_537)">
<path d="M48.1248 37.9167C44.6248 37.9167 39.1707 38.9083 34.9998 40.8333C30.829 38.8792 25.3748 37.9167 21.8748 37.9167C15.5457 37.9167 2.9165 41.0667 2.9165 47.3958V55.4167H67.0832V47.3958C67.0832 41.0667 54.454 37.9167 48.1248 37.9167ZM36.4582 51.0417H7.2915V47.3958C7.2915 45.8208 14.7582 42.2917 21.8748 42.2917C28.9915 42.2917 36.4582 45.8208 36.4582 47.3958V51.0417ZM62.7082 51.0417H40.8332V47.3958C40.8332 46.0542 40.2498 44.8875 39.3165 43.8375C41.8832 42.9625 45.0332 42.2917 48.1248 42.2917C55.2415 42.2917 62.7082 45.8208 62.7082 47.3958V51.0417ZM21.8748 35C27.504 35 32.0832 30.4208 32.0832 24.7917C32.0832 19.1625 27.504 14.5833 21.8748 14.5833C16.2457 14.5833 11.6665 19.1625 11.6665 24.7917C11.6665 30.4208 16.2457 35 21.8748 35ZM21.8748 18.9583C25.0832 18.9583 27.7082 21.5833 27.7082 24.7917C27.7082 28 25.0832 30.625 21.8748 30.625C18.6665 30.625 16.0415 28 16.0415 24.7917C16.0415 21.5833 18.6665 18.9583 21.8748 18.9583ZM48.1248 35C53.754 35 58.3332 30.4208 58.3332 24.7917C58.3332 19.1625 53.754 14.5833 48.1248 14.5833C42.4957 14.5833 37.9165 19.1625 37.9165 24.7917C37.9165 30.4208 42.4957 35 48.1248 35ZM48.1248 18.9583C51.3332 18.9583 53.9582 21.5833 53.9582 24.7917C53.9582 28 51.3332 30.625 48.1248 30.625C44.9165 30.625 42.2915 28 42.2915 24.7917C42.2915 21.5833 44.9165 18.9583 48.1248 18.9583Z" fill="white"/>
</g>
<defs>
<clipPath id="clip0_12_537">
<rect width="70" height="70" fill="white"/>
</clipPath>
</defs>
</svg>
