<svg width="70" height="70" viewBox="0 0 70 70" fill="none" xmlns="http://www.w3.org/2000/svg">
<g clip-path="url(#clip0_12_559)">
<path d="M46.6665 32.0833C51.5082 32.0833 55.3873 28.175 55.3873 23.3333C55.3873 18.4917 51.5082 14.5833 46.6665 14.5833C41.8248 14.5833 37.9165 18.4917 37.9165 23.3333C37.9165 28.175 41.8248 32.0833 46.6665 32.0833ZM23.3332 32.0833C28.1748 32.0833 32.054 28.175 32.054 23.3333C32.054 18.4917 28.1748 14.5833 23.3332 14.5833C18.4915 14.5833 14.5832 18.4917 14.5832 23.3333C14.5832 28.175 18.4915 32.0833 23.3332 32.0833ZM23.3332 37.9167C16.5373 37.9167 2.9165 41.3292 2.9165 48.125V55.4167H43.7498V48.125C43.7498 41.3292 30.129 37.9167 23.3332 37.9167ZM46.6665 37.9167C45.8207 37.9167 44.8582 37.975 43.8373 38.0625C47.2207 40.5125 49.5832 43.8083 49.5832 48.125V55.4167H67.0832V48.125C67.0832 41.3292 53.4623 37.9167 46.6665 37.9167Z" fill="white"/>
</g>
<defs>
<clipPath id="clip0_12_559">
<rect width="70" height="70" fill="white"/>
</clipPath>
</defs>
</svg>
