<svg width="70" height="70" viewBox="0 0 70 70" fill="none" xmlns="http://www.w3.org/2000/svg">
<g clip-path="url(#clip0_12_543)">
<path d="M31.2211 25.2624L32.1118 25.0095C33.0756 24.7356 34.0505 24.6953 34.9763 24.8538L31.9215 19.0971C31.4674 18.2413 30.4053 17.9155 29.5495 18.3699C28.6937 18.8241 28.368 19.8861 28.8223 20.742L31.2211 25.2624Z" fill="white"/>
<path d="M17.6078 15.4604C21.6914 15.4604 25.0018 12.15 25.0018 8.06639C25.0018 3.98282 21.6914 0.672424 17.6078 0.672424C13.5243 0.672424 10.2139 3.98282 10.2139 8.06639C10.2139 12.15 13.5243 15.4604 17.6078 15.4604Z" fill="white"/>
<path d="M67.4571 34.3223H39.6032H34.7162L34.7537 34.3117C36.4428 33.8321 37.4229 32.0741 36.9434 30.3851C36.4639 28.696 34.7054 27.716 33.0168 28.1954L22.6762 31.132L17.6388 22.7029L22.7712 27.6621L24.1329 27.2754L24.3728 23.8957C24.5582 21.2844 22.5916 19.0172 19.9802 18.8319L11.9348 18.2608C9.18032 18.0652 6.83829 20.2607 6.85929 23.0249L7.03539 46.1806H5.08648V22.7505C5.08648 21.3459 3.94788 20.2073 2.54324 20.2073C1.1386 20.2073 0 21.346 0 22.7505C0 23.7489 0 65.5277 0 66.7842C0 68.1887 1.13875 69.3275 2.54324 69.3275C3.94773 69.3275 5.08648 68.1887 5.08648 66.7842V59.7033H19.6642V66.7842C19.6642 68.1887 20.8028 69.3275 22.2075 69.3275C23.6121 69.3275 24.7507 68.1887 24.7507 66.7842C24.7507 47.4168 24.765 48.6581 24.721 48.3557L26.7319 48.8748L28.9193 65.9957C29.1862 68.0849 31.0959 69.5634 33.1869 69.2963C35.2768 69.0293 36.7545 67.1186 36.4877 65.0286L33.9726 45.3438C33.7747 43.7955 32.6535 42.5237 31.142 42.1337L24.9569 40.5368C23.0738 41.0716 23.4849 40.9549 21.5589 41.5017C19.0084 42.226 16.3536 40.7456 15.6291 38.1951L15.6267 38.1862L12.1809 25.9647L18.4696 36.4872C19.0541 37.4651 20.1009 38.0357 21.1985 38.0357C21.8072 38.0357 21.2066 38.1588 31.9345 35.1123C31.4994 35.5687 31.2306 36.1851 31.2306 36.8656C31.2306 38.266 32.3754 39.4088 33.7738 39.4088H48.0721V64.2411H44.5629C43.1584 64.2411 42.0196 65.3797 42.0196 66.7844C42.0196 68.1889 43.1582 69.3276 44.5629 69.3276H56.6677C58.0723 69.3276 59.2109 68.1889 59.2109 66.7844C59.2109 65.3797 58.0723 64.2411 56.6677 64.2411H53.1585V39.4088H67.4568C68.8614 39.4088 70 38.2702 70 36.8656C70 35.461 68.8616 34.3223 67.4571 34.3223ZM19.6642 51.2673V56.1947H5.08648V51.2673H19.6642Z" fill="white"/>
</g>
<defs>
<clipPath id="clip0_12_543">
<rect width="70" height="70" fill="white"/>
</clipPath>
</defs>
</svg>
